<?xml version="1.0" encoding="UTF-8" standalone="no"?>
<!-- Created with Inkscape (http://www.inkscape.org/) -->

<svg
   xmlns:dc="http://purl.org/dc/elements/1.1/"
   xmlns:cc="http://creativecommons.org/ns#"
   xmlns:rdf="http://www.w3.org/1999/02/22-rdf-syntax-ns#"
   xmlns:svg="http://www.w3.org/2000/svg"
   xmlns="http://www.w3.org/2000/svg"
   xmlns:sodipodi="http://sodipodi.sourceforge.net/DTD/sodipodi-0.dtd"
   xmlns:inkscape="http://www.inkscape.org/namespaces/inkscape"
   width="3240"
   height="2160"
   viewBox="0 0 857.25 571.5"
   version="1.1"
   id="svg8"
   inkscape:version="0.92.4 (5da689c313, 2019-01-14)"
   sodipodi:docname="bg_sotaro.svg"
   inkscape:export-filename="D:\Sotaro\Pictures\my_icon\そうたろう.png"
   inkscape:export-xdpi="300"
   inkscape:export-ydpi="300">
  <defs
     id="defs2">
    <inkscape:path-effect
       effect="spiro"
       id="path-effect5820"
       is_visible="true" />
    <inkscape:path-effect
       effect="spiro"
       id="path-effect5814"
       is_visible="true" />
    <inkscape:path-effect
       effect="spiro"
       id="path-effect5766"
       is_visible="true" />
    <inkscape:path-effect
       effect="spiro"
       id="path-effect5762"
       is_visible="true" />
    <inkscape:path-effect
       effect="spiro"
       id="path-effect5758"
       is_visible="true" />
    <inkscape:path-effect
       effect="spiro"
       id="path-effect5754"
       is_visible="true" />
    <inkscape:path-effect
       effect="spiro"
       id="path-effect5750"
       is_visible="true" />
    <inkscape:path-effect
       effect="spiro"
       id="path-effect5750-2"
       is_visible="true" />
    <inkscape:path-effect
       effect="spiro"
       id="path-effect5750-9"
       is_visible="true" />
    <inkscape:path-effect
       effect="spiro"
       id="path-effect5750-2-4"
       is_visible="true" />
  </defs>
  <sodipodi:namedview
     id="base"
     pagecolor="#000000"
     bordercolor="#666666"
     borderopacity="1.0"
     inkscape:pageopacity="1"
     inkscape:pageshadow="2"
     inkscape:zoom="0.7071068"
     inkscape:cx="1660.7853"
     inkscape:cy="1863.2687"
     inkscape:document-units="mm"
     inkscape:current-layer="layer3"
     showgrid="true"
     units="px"
     inkscape:window-width="1920"
     inkscape:window-height="1027"
     inkscape:window-x="-8"
     inkscape:window-y="-8"
     inkscape:window-maximized="1"
     inkscape:object-paths="true"
     inkscape:snap-intersection-paths="true"
     inkscape:snap-global="false"
     inkscape:snap-midpoints="true" />
  <metadata
     id="metadata5">
    <rdf:RDF>
      <cc:Work
         rdf:about="">
        <dc:format>image/svg+xml</dc:format>
        <dc:type
           rdf:resource="http://purl.org/dc/dcmitype/StillImage" />
        <dc:title />
      </cc:Work>
    </rdf:RDF>
  </metadata>
  <g
     inkscape:label="レイヤー 1"
     inkscape:groupmode="layer"
     id="layer1"
     transform="translate(0,274.50002)"
     style="display:inline"
     sodipodi:insensitive="true">
    <path
       inkscape:connector-curvature="0"
       id="path5855"
       d="m 829.51568,-132.39776 c -10.00449,5.29471 -20.34063,9.96264 -30.9277,13.96735 -21.26305,8.04304 -43.54064,13.39975 -66.13586,15.90254"
       transform="translate(-2.5146325,5.1713084)"
       inkscape:original-d="m 829.51568,-132.39776 c -10.30899,4.65552 -20.61821,9.3113 -30.9277,13.96735 -10.30949,4.65604 -66.13586,15.90254 -66.13586,15.90254"
       inkscape:path-effect="#path-effect5750"
       style="font-style:normal;font-variant:normal;font-weight:normal;font-stretch:normal;font-size:423.33334351px;line-height:1;font-family:'Nagomi Gokuboso Gothic';-inkscape-font-specification:'Nagomi Gokuboso Gothic';text-align:center;letter-spacing:0px;word-spacing:0px;text-anchor:middle;fill:none;fill-opacity:1;stroke:#800080;stroke-width:0.26458332px;stroke-linecap:butt;stroke-linejoin:miter;stroke-opacity:1" />
    <path
       inkscape:connector-curvature="0"
       id="path5748"
       d="m 732.45212,-102.52787 c 14.25735,-1.30299 28.76291,0.16673 42.46914,4.303036 10.2717,3.099821 20.09287,7.688281 29.06136,13.577493"
       transform="translate(-2.5146325,5.1713084)"
       inkscape:original-d="m 732.45212,-102.52787 c 0,0 28.31303,2.868425 42.46914,4.303036 14.15611,1.43461 19.37451,9.051398 29.06136,13.577493"
       inkscape:path-effect="#path-effect5750"
       style="font-style:normal;font-variant:normal;font-weight:normal;font-stretch:normal;font-size:423.33334351px;line-height:1;font-family:'Nagomi Gokuboso Gothic';-inkscape-font-specification:'Nagomi Gokuboso Gothic';text-align:center;letter-spacing:0px;word-spacing:0px;text-anchor:middle;fill:none;fill-opacity:1;stroke:#800080;stroke-width:0.26458332px;stroke-linecap:butt;stroke-linejoin:miter;stroke-opacity:1" />
    <path
       transform="translate(-2.5146325,5.1713084)"
       inkscape:original-d="m 757.85754,18.670666 c -9.77783,-2.545504 -19.55591,-5.153105 -29.33427,-7.729273 -9.77837,-2.5761422 -10.78852,-13.9071879 -16.18316,-20.8603769 -5.39467,-6.9531971 -6.42313,-19.3951221 -9.63507,-29.0922861 -3.21196,-9.697167 -7.35856,-37.106185 -11.03823,-55.65888 -3.67969,-18.55269 -7.35857,-56.0645 -11.03823,-84.09636 -3.67969,-28.03185 -0.68575,-16.02752 -1.02899,-24.04089"
       inkscape:path-effect="#path-effect5754"
       inkscape:connector-curvature="0"
       id="path5752"
       d="m 757.85754,18.670666 c -10.28201,1.297468 -21.02662,-1.533623 -29.33427,-7.729273 -7.12401,-5.312916 -12.33122,-12.8515608 -16.18316,-20.8603769 -4.43606,-9.2233001 -7.20956,-19.1492071 -9.63507,-29.0922861 -4.48344,-18.379352 -7.85227,-37.010784 -11.03823,-55.65888 -4.76341,-27.88119 -9.12975,-55.87565 -11.03823,-84.09636 -0.54125,-8.00351 -0.88439,-16.02041 -1.02899,-24.04089"
       style="font-style:normal;font-variant:normal;font-weight:normal;font-stretch:normal;font-size:423.33334351px;line-height:1;font-family:'Nagomi Gokuboso Gothic';-inkscape-font-specification:'Nagomi Gokuboso Gothic';text-align:center;letter-spacing:0px;word-spacing:0px;text-anchor:middle;fill:none;fill-opacity:1;stroke:#800080;stroke-width:0.26458332px;stroke-linecap:butt;stroke-linejoin:miter;stroke-opacity:1" />
    <path
       transform="translate(-2.5146325,5.1713084)"
       inkscape:original-d="m 699.25837,-259.60288 c -4.08898,11.17361 -8.17825,22.39158 -12.26775,33.58776 -4.08951,11.19618 -16.49209,40.1723 -24.73855,60.25885 -8.24645,20.08655 -19.61618,42.58854 -29.42465,63.88321 -9.8085,21.294664 -24.21594,45.076204 -36.3243,67.614704 -12.10837,22.538502 -23.23896,24.6500908 -34.85886,36.97552 -11.61989,12.325429 -16.84488,16.712591 -25.2677,25.069271 -8.42283,8.356679 -12.25876,17.374049 -18.38855,26.061458 -6.12978,8.687408 -9.83342,23.062591 -14.75052,34.59427 -4.91709,11.531679 -9.06375,29.935407 -13.59603,44.903517"
       inkscape:path-effect="#path-effect5758"
       inkscape:connector-curvature="0"
       id="path5756"
       d="m 699.25837,-259.60288 c -3.93973,11.24978 -8.02947,22.44703 -12.26775,33.58776 -7.72145,20.29658 -15.93661,40.40695 -24.73855,60.25885 -9.50286,21.43274 -19.68607,42.55654 -29.42465,63.88321 -10.65026,23.323173 -20.90707,47.127942 -36.3243,67.614704 -10.19879,13.552385 -22.46872,25.39247 -34.85886,36.97552 -8.67106,8.106232 -17.44882,16.138233 -25.2677,25.069271 -7.01675,8.014821 -13.23868,16.736703 -18.38855,26.061458 -6.06788,10.986974 -10.61698,22.743255 -14.75052,34.59427 -5.15191,14.770717 -9.68915,29.755827 -13.59603,44.903517"
       style="font-style:normal;font-variant:normal;font-weight:normal;font-stretch:normal;font-size:423.33334351px;line-height:1;font-family:'Nagomi Gokuboso Gothic';-inkscape-font-specification:'Nagomi Gokuboso Gothic';text-align:center;letter-spacing:0px;word-spacing:0px;text-anchor:middle;fill:none;fill-opacity:1;stroke:#800080;stroke-width:0.26458332px;stroke-linecap:butt;stroke-linejoin:miter;stroke-opacity:1" />
    <path
       transform="translate(-2.5146325,5.1713084)"
       inkscape:original-d="m 619.8282,-73.789617 c 0.7801,-7.813455 1.55993,-15.626646 2.3395,-23.439569 0.77957,-7.812924 -1.14625,-23.459984 -1.71979,-35.189584 -0.57354,-11.7296 -14.28724,-41.01068 -21.43125,-61.51562 -7.14402,-20.50495 -28.83932,-23.90096 -43.25938,-35.85104 -14.42005,-11.95009 -27.34,-4.76277 -41.01041,-7.14375 -13.67041,-2.38099 -41.89209,15.16917 -62.83854,22.75416 -20.94646,7.58499 -22.48932,32.01432 -33.73438,48.02188 -11.24505,16.00755 -5.37958,22.57751 -8.06979,33.86666 -2.6902,11.28915 -11.90598,26.45807 -17.85937,39.687502 -5.95339,13.229431 -19.31432,9.965706 -28.97188,14.948958 -9.65755,4.98325 -29.19209,-5.027348 -43.78854,-7.540625 -14.59645,-2.513277 -35.71848,-24.694715 -53.57812,-37.041665 -17.85964,-12.34696 -24.78238,-37.39471 -37.17396,-56.09167 -12.39159,-18.69696 -7.93724,-32.80859 -11.90625,-49.2125 -3.96902,-16.4039 -0.96988,-28.39887 -1.45521,-42.59791 -0.48534,-14.19904 2.77652,-23.47387 4.16439,-35.2104"
       inkscape:path-effect="#path-effect5762"
       inkscape:connector-curvature="0"
       id="path5760"
       d="m 619.8282,-73.789617 c 1.2551,-7.755979 2.03687,-15.588525 2.3395,-23.439569 0.45291,-11.749434 -0.16831,-23.534224 -1.71979,-35.189584 -2.89084,-21.71718 -9.18875,-43.34658 -21.43125,-61.51562 -10.61695,-15.75657 -25.69331,-28.61072 -43.25938,-35.85104 -12.92508,-5.32741 -27.03755,-7.58872 -41.01041,-7.14375 -22.64875,0.72126 -45.08293,8.67494 -62.83854,22.75416 -15.54116,12.32328 -27.39026,29.22977 -33.73438,48.02188 -3.71428,11.00217 -5.56002,22.52891 -8.06979,33.86666 -3.17526,14.34407 -7.75372,29.02399 -17.85937,39.687502 -7.61129,8.031454 -18.03987,13.238032 -28.97188,14.948958 -14.82948,2.320903 -29.99663,-1.617511 -43.78854,-7.540625 -20.07478,-8.621378 -38.23303,-21.490035 -53.57812,-37.041665 -15.85967,-16.07313 -28.81156,-35.1168 -37.17396,-56.09167 -6.2684,-15.72261 -9.92936,-32.40223 -11.90625,-49.2125 -1.66128,-14.12653 -2.14863,-28.39094 -1.45521,-42.59791 0.57662,-11.81391 1.96915,-23.58793 4.16439,-35.2104"
       style="font-style:normal;font-variant:normal;font-weight:normal;font-stretch:normal;font-size:423.33334351px;line-height:1;font-family:'Nagomi Gokuboso Gothic';-inkscape-font-specification:'Nagomi Gokuboso Gothic';text-align:center;letter-spacing:0px;word-spacing:0px;text-anchor:middle;fill:none;fill-opacity:1;stroke:#800080;stroke-width:0.26458332px;stroke-linecap:butt;stroke-linejoin:miter;stroke-opacity:1" />
    <path
       transform="translate(-2.5146325,5.1713084)"
       inkscape:original-d="M 622.74772,113.35168 C 608.42799,109.46064 594.10803,105.56989 579.78777,101.6794 565.46752,97.788913 540.68651,72.742767 521.13547,58.274848 501.58446,43.806902 499.37108,32.518693 488.48851,19.641025 477.60593,6.7633575 452.19357,-27.755036 434.0457,-51.452669 415.89785,-75.1503 405.04723,-95.730584 390.54759,-117.86914 c -14.49964,-22.13856 -15.34041,-25.188 -23.011,-37.7816"
       inkscape:path-effect="#path-effect5766"
       inkscape:connector-curvature="0"
       id="path5764"
       d="m 622.74772,113.35168 c -14.8124,-1.6141 -29.36735,-5.5687 -42.95995,-11.67228 C 557.4596,91.653234 538.02029,75.994164 521.13547,58.274848 509.50026,46.064586 498.98597,32.842242 488.48851,19.641025 469.9085,-3.7245122 451.31486,-27.102288 434.0457,-51.452669 c -15.31173,-21.59031 -29.56035,-43.914703 -43.49811,-66.416471 -7.76487,-12.53596 -15.43549,-25.13031 -23.011,-37.7816"
       style="font-style:normal;font-variant:normal;font-weight:normal;font-stretch:normal;font-size:423.33334351px;line-height:1;font-family:'Nagomi Gokuboso Gothic';-inkscape-font-specification:'Nagomi Gokuboso Gothic';text-align:center;letter-spacing:0px;word-spacing:0px;text-anchor:middle;fill:none;fill-opacity:1;stroke:#800080;stroke-width:0.26458332px;stroke-linecap:butt;stroke-linejoin:miter;stroke-opacity:1" />
    <path
       inkscape:transform-center-y="20.762426"
       inkscape:transform-center-x="43.125452"
       inkscape:original-d="m 829.51568,-132.39776 c -10.30899,4.65552 -20.61821,9.3113 -30.9277,13.96735 -10.30949,4.65604 -66.13586,15.90254 -66.13586,15.90254 0,0 28.31303,2.868425 42.46914,4.303036 14.15611,1.43461 19.37451,9.051398 29.06136,13.577493"
       inkscape:path-effect="#path-effect5750-2"
       inkscape:connector-curvature="0"
       id="path5748-5"
       d="m 829.51568,-132.39776 c -10.00449,5.29471 -20.34063,9.96264 -30.9277,13.96735 -21.26305,8.04304 -43.54064,13.39975 -66.13586,15.90254 14.25735,-1.30299 28.76291,0.16673 42.46914,4.303036 10.2717,3.099821 20.09287,7.688281 29.06136,13.577493"
       style="font-style:normal;font-variant:normal;font-weight:normal;font-stretch:normal;font-size:423.33334351px;line-height:1;font-family:'Nagomi Gokuboso Gothic';-inkscape-font-specification:'Nagomi Gokuboso Gothic';text-align:center;letter-spacing:0px;word-spacing:0px;text-anchor:middle;fill:none;fill-opacity:1;stroke:#800080;stroke-width:0.26458332px;stroke-linecap:butt;stroke-linejoin:miter;stroke-opacity:1"
       transform="matrix(0.65647043,-0.75435176,-0.75435176,-0.65647043,-109.61424,452.12396)" />
    <path
       inkscape:transform-center-y="37.334981"
       inkscape:transform-center-x="34.416925"
       inkscape:original-d="m 829.51568,-132.39776 c -10.30899,4.65552 -20.61821,9.3113 -30.9277,13.96735 -10.30949,4.65604 -66.13586,15.90254 -66.13586,15.90254 0,0 28.31303,2.868425 42.46914,4.303036 14.15611,1.43461 19.37451,9.051398 29.06136,13.577493"
       inkscape:path-effect="#path-effect5750-9"
       inkscape:connector-curvature="0"
       id="path5748-8"
       d="m 829.51568,-132.39776 c -10.00449,5.29471 -20.34063,9.96264 -30.9277,13.96735 -21.26305,8.04304 -43.54064,13.39975 -66.13586,15.90254 14.25735,-1.30299 28.76291,0.16673 42.46914,4.303036 10.2717,3.099821 20.09287,7.688281 29.06136,13.577493"
       style="font-style:normal;font-variant:normal;font-weight:normal;font-stretch:normal;font-size:423.33334351px;line-height:1;font-family:'Nagomi Gokuboso Gothic';-inkscape-font-specification:'Nagomi Gokuboso Gothic';text-align:center;letter-spacing:0px;word-spacing:0px;text-anchor:middle;fill:none;fill-opacity:1;stroke:#800080;stroke-width:0.26458332px;stroke-linecap:butt;stroke-linejoin:miter;stroke-opacity:1"
       transform="matrix(0.431524,-0.90210145,-0.90210145,-0.431524,-10.888695,761.09491)" />
    <path
       inkscape:transform-center-y="20.762426"
       inkscape:transform-center-x="43.125452"
       inkscape:original-d="m 829.51568,-132.39776 c -10.30899,4.65552 -20.61821,9.3113 -30.9277,13.96735 -10.30949,4.65604 -66.13586,15.90254 -66.13586,15.90254 0,0 28.31303,2.868425 42.46914,4.303036 14.15611,1.43461 19.37451,9.051398 29.06136,13.577493"
       inkscape:path-effect="#path-effect5750-2-4"
       inkscape:connector-curvature="0"
       id="path5748-5-7"
       d="m 829.51568,-132.39776 c -10.00449,5.29471 -20.34063,9.96264 -30.9277,13.96735 -21.26305,8.04304 -43.54064,13.39975 -66.13586,15.90254 14.25735,-1.30299 28.76291,0.16673 42.46914,4.303036 10.2717,3.099821 20.09287,7.688281 29.06136,13.577493"
       style="font-style:normal;font-variant:normal;font-weight:normal;font-stretch:normal;font-size:423.33334351px;line-height:1;font-family:'Nagomi Gokuboso Gothic';-inkscape-font-specification:'Nagomi Gokuboso Gothic';text-align:center;letter-spacing:0px;word-spacing:0px;text-anchor:middle;fill:none;fill-opacity:1;stroke:#800080;stroke-width:0.26458332px;stroke-linecap:butt;stroke-linejoin:miter;stroke-opacity:1"
       transform="matrix(0.65647043,-0.75435177,-0.75435177,-0.65647043,-120.22373,807.82073)" />
    <path
       transform="translate(-2.5146325,5.1713084)"
       inkscape:original-d="m 431.15478,151.59416 c -4.1062,3.22458 -8.21264,6.44945 -12.31937,9.67456 -4.10673,3.22512 -9.26015,19.00563 -13.89062,28.50886 -4.63048,9.50322 -5.68828,27.16363 -8.53282,40.74583 -2.84453,13.5822 -7.40806,18.52057 -11.1125,27.78125 -3.70443,9.26068 -19.09384,12.43515 -28.64114,18.65313 -9.54731,6.21797 -36.95322,-6.83533 -55.43021,-10.25261 -18.47699,-3.41728 -27.56051,-18.78568 -41.34114,-28.17812 -13.78065,-9.39245 -18.38828,-21.78429 -27.58282,-32.67604 -9.19453,-10.89176 -11.28862,-25.75304 -16.93333,-38.62917 -5.64471,-12.87613 -6.17335,-38.10026 -9.26042,-57.15 -3.08707,-19.049735 4.40999,-39.423181 6.61459,-59.134374 2.20459,-19.711194 18.34471,-29.280829 27.51666,-43.9208329 9.17196,-14.6400042 31.44158,-23.4599851 47.16198,-35.1895831 15.72041,-11.729595 32.36762,-8.731514 48.55104,-13.096875 16.18343,-4.36536 16.92143,1.109512 25.38175,1.664666"
       inkscape:path-effect="#path-effect5814"
       inkscape:connector-curvature="0"
       id="path5812"
       d="m 431.15478,151.59416 c -4.63463,2.4637 -8.82715,5.75614 -12.31937,9.67456 -7.09784,7.96409 -11.09936,18.2125 -13.89062,28.50886 -3.63155,13.39601 -5.44798,27.21346 -8.53282,40.74583 -2.23217,9.79192 -5.22955,19.64153 -11.1125,27.78125 -6.81853,9.4342 -17.30508,16.00925 -28.64114,18.65313 -9.33896,2.1781 -19.16208,1.78157 -28.531,-0.26379 -9.36893,-2.04536 -18.3217,-5.70086 -26.89921,-9.98882 -14.96315,-7.48018 -28.94295,-16.94719 -41.34114,-28.17812 -10.59877,-9.60092 -20.05828,-20.51493 -27.58282,-32.67604 -7.41916,-11.9908 -12.91097,-25.1146 -16.93333,-38.62917 -5.51838,-18.54099 -8.29627,-37.82925 -9.26042,-57.15 -0.99489,-19.936741 -0.009,-40.303873 6.61459,-59.134374 5.7732,-16.412197 15.68628,-31.164183 27.51666,-43.9208329 13.4142,-14.4644782 29.42028,-26.5643911 47.16198,-35.1895831 15.17645,-7.378083 31.69912,-12.217441 48.55104,-13.096875 8.4868,-0.442892 17.0255,0.11712 25.38175,1.664666"
       style="font-style:normal;font-variant:normal;font-weight:normal;font-stretch:normal;font-size:423.33334351px;line-height:1;font-family:'Nagomi Gokuboso Gothic';-inkscape-font-specification:'Nagomi Gokuboso Gothic';text-align:center;letter-spacing:0px;word-spacing:0px;text-anchor:middle;fill:none;fill-opacity:1;stroke:#800080;stroke-width:0.26458332px;stroke-linecap:butt;stroke-linejoin:miter;stroke-opacity:1" />
    <path
       transform="translate(-2.5146325,5.1713084)"
       inkscape:original-d="m 374.67002,1.4637799 c -5.19977,3.4551672 -10.39981,6.910599 -15.60009,10.3662951 -5.20031,3.455697 -11.10033,12.12932 -16.65089,18.194364 -5.55057,6.06507 -13.15831,21.234294 -19.73787,31.851864 -6.57955,10.617544 -11.38094,22.48154 -17.07184,33.722733 -5.69087,11.241164 -15.76221,38.914444 -15.76221,38.914444 0,0 3.11841,-23.04336 4.6772,-34.564641 1.55882,-11.521281 -3.18024,-16.276981 -4.77075,-24.415062 -1.59052,-8.138107 -7.26501,-21.827278 -10.8979,-32.74052 -3.63292,-10.913242 -5.33178,-13.96955 -7.99806,-20.953941 -2.66626,-6.984365 -10.07134,-26.3173898 -15.1074,-39.475709 -5.03607,-13.158303 -10.3208,-25.101327 -15.48159,-37.651594 -5.16079,-12.550264 -12.6594,-30.99462 -18.9895,-46.491533 -6.3301,-15.49691 -21.98292,-50.18653 -21.98292,-50.18653 0,0 6.73546,31.52417 10.10279,47.28666 3.36733,15.762481 1.18516,16.463534 1.77734,24.6957 0.59219,8.232167 -0.93518,15.21628 -1.40316,22.824818 -0.46799,7.608536 -2.21362,13.376574 -3.32083,20.065259 -1.1072,6.688685 -9.44771,23.884721 -14.17196,35.827475 -4.72426,11.942762 -17.61726,21.452575 -26.42628,32.17926 -8.80902,10.726684 -28.56194,13.813101 -42.8433,20.720076 C 108.72943,58.540146 85.780419,45.209538 67.16483,41.998131 48.549245,38.786698 47.520785,14.620556 37.698367,0.93215257 27.875947,-12.75623 34.455761,-21.799379 32.834061,-33.164751 c -1.6217,-11.365373 8.419253,-43.529562 12.628486,-65.293943 4.209229,-21.764386 11.443853,-27.814116 17.165383,-41.720776 5.721532,-13.90666 16.8949,-33.36334 16.8949,-33.36334"
       inkscape:path-effect="#path-effect5820"
       inkscape:connector-curvature="0"
       id="path5818"
       d="m 374.67002,1.4637799 c -5.57766,2.8364504 -10.82442,6.3229334 -15.60009,10.3662951 -6.28813,5.323903 -11.73219,11.584455 -16.65089,18.194364 -7.46297,10.028971 -13.74803,20.879263 -19.73787,31.851864 -6.03805,11.060926 -11.79661,22.27834 -17.07184,33.722733 -5.86073,12.714604 -11.12256,25.705244 -15.76221,38.914444 3.98163,-11.01693 5.58768,-22.88572 4.6772,-34.564641 -0.64555,-8.280547 -2.53338,-16.416414 -4.77075,-24.415062 -3.09937,-11.080334 -6.8778,-21.960042 -10.8979,-32.74052 -2.6122,-7.004986 -5.32733,-13.971059 -7.99806,-20.953941 -5.03317,-13.1597306 -9.90908,-26.3803356 -15.1074,-39.475709 -5.00676,-12.612813 -10.31088,-25.1051 -15.48159,-37.651594 -6.37854,-15.477249 -12.55435,-31.037734 -18.9895,-46.491533 -7.02108,-16.8609 -14.35035,-33.59347 -21.98292,-50.18653 4.66627,15.447 8.0493,31.28144 10.10279,47.28666 1.05097,8.191447 1.7547,16.437139 1.77734,24.6957 0.0209,7.62693 -0.53909,15.246962 -1.40316,22.824818 -0.76848,6.739553 -1.77915,13.459553 -3.32083,20.065259 -2.92917,12.550725 -7.77539,24.638879 -14.17196,35.827475 -6.92526,12.113364 -15.72004,23.231122 -26.42628,32.17926 C 153.55398,41.193407 138.73599,48.519421 123.0108,51.633198 104.00053,55.39746 83.322985,52.697388 67.16483,41.998131 52.841116,32.513564 42.849787,17.320827 37.698367,0.93215257 34.242262,-10.063065 32.822861,-21.639156 32.834061,-33.164751 c 0.02164,-22.272123 5.321876,-44.254423 12.628486,-65.293943 4.935571,-14.212066 10.793733,-28.091956 17.165383,-41.720776 5.280291,-11.29443 10.915633,-22.42287 16.8949,-33.36334"
       style="font-style:normal;font-variant:normal;font-weight:normal;font-stretch:normal;font-size:423.33334351px;line-height:1;font-family:'Nagomi Gokuboso Gothic';-inkscape-font-specification:'Nagomi Gokuboso Gothic';text-align:center;letter-spacing:0px;word-spacing:0px;text-anchor:middle;fill:none;fill-opacity:1;stroke:#800080;stroke-width:0.26458332px;stroke-linecap:butt;stroke-linejoin:miter;stroke-opacity:1" />
  </g>
  <g
     inkscape:groupmode="layer"
     id="layer3"
     inkscape:label="レイヤー 2">
    <path
       style="fill:none;stroke:#ffffff;stroke-width:0.26458332px;stroke-linecap:butt;stroke-linejoin:miter;stroke-opacity:1"
       d="m 729.93749,177.14346 c 0,0 24.86824,-2.59414 47.83958,-9.71846 31.30865,-9.71004 49.22398,-20.15143 49.22398,-20.15143"
       id="path1356"
       inkscape:connector-curvature="0"
       sodipodi:nodetypes="csc" />
    <path
       style="fill:none;stroke:#ffffff;stroke-width:0.26458332px;stroke-linecap:butt;stroke-linejoin:miter;stroke-opacity:1"
       d="m 729.9376,177.14344 c 0,0 17.95443,-2.39113 39.59148,3.47697 18.56331,5.03449 31.93889,14.40358 31.93889,14.40358"
       id="path1358"
       inkscape:connector-curvature="0"
       sodipodi:nodetypes="csc" />
    <path
       style="fill:none;stroke:#ffffff;stroke-width:0.26458332px;stroke-linecap:butt;stroke-linejoin:miter;stroke-opacity:1"
       d="m 448.56695,241.41703 c 0,0 18.28029,-17.05844 38.73315,-29.71225 27.87609,-17.24645 47.51272,-23.9086 47.51272,-23.9086"
       id="path1356-5"
       inkscape:connector-curvature="0"
       sodipodi:nodetypes="csc"
       inkscape:transform-center-x="-43.131783"
       inkscape:transform-center-y="-26.806562" />
    <path
       style="fill:none;stroke:#ffffff;stroke-width:0.26458332px;stroke-linecap:butt;stroke-linejoin:miter;stroke-opacity:1"
       d="m 448.56704,241.41696 c 0,0 13.58899,-11.97575 23.36424,-32.151 8.38659,-17.30918 10.09789,-33.54979 10.09789,-33.54979"
       id="path1358-1"
       inkscape:connector-curvature="0"
       sodipodi:nodetypes="csc"
       inkscape:transform-center-x="-16.740003"
       inkscape:transform-center-y="-32.846602" />
    <path
       style="fill:none;stroke:#ffffff;stroke-width:0.26458332px;stroke-linecap:butt;stroke-linejoin:miter;stroke-opacity:1"
       d="m 397.67313,419.08963 c 0,0 13.08811,-21.30401 29.44148,-38.93936 22.2887,-24.03602 39.44791,-35.67831 39.44791,-35.67831"
       id="path1356-5-6"
       inkscape:connector-curvature="0"
       sodipodi:nodetypes="csc"
       inkscape:transform-center-x="-34.454253"
       inkscape:transform-center-y="-37.307462" />
    <path
       style="fill:none;stroke:#ffffff;stroke-width:0.26458332px;stroke-linecap:butt;stroke-linejoin:miter;stroke-opacity:1"
       d="m 397.6732,419.08954 c 0,0 9.91668,-15.15713 13.97723,-37.20499 3.48372,-18.91577 0.81635,-35.02698 0.81635,-35.02698"
       id="path1358-1-5"
       inkscape:connector-curvature="0"
       sodipodi:nodetypes="csc"
       inkscape:transform-center-x="-7.8945017"
       inkscape:transform-center-y="-36.114702" />
    <path
       style="fill:none;stroke:#ffffff;stroke-width:0.26458332px;stroke-linecap:butt;stroke-linejoin:miter;stroke-opacity:1"
       d="m 677.08496,76.863929 c 0,0 -0.71481,48.133481 18.18542,141.889531 8.41498,41.74315 15.51864,56.11301 24.23123,65.86817 15.25401,17.07934 35.84128,13.72036 35.84128,13.72036"
       id="path1396"
       inkscape:connector-curvature="0"
       sodipodi:nodetypes="cssc" />
    <path
       style="fill:none;stroke:#ffffff;stroke-width:0.26458332px;stroke-linecap:butt;stroke-linejoin:miter;stroke-opacity:1"
       d="m 437.95151,597.10071 c 0,0 18.28029,-17.05844 38.73315,-29.71225 27.87609,-17.24645 47.51272,-23.9086 47.51272,-23.9086"
       id="path1356-5-0"
       inkscape:connector-curvature="0"
       sodipodi:nodetypes="csc"
       inkscape:transform-center-x="-43.131783"
       inkscape:transform-center-y="-26.806562" />
    <path
       style="fill:none;stroke:#ffffff;stroke-width:0.26458332px;stroke-linecap:butt;stroke-linejoin:miter;stroke-opacity:1"
       d="m 437.9516,597.10064 c 0,0 13.58899,-11.97575 23.36424,-32.151 8.38659,-17.30918 10.09789,-33.54979 10.09789,-33.54979"
       id="path1358-1-7"
       inkscape:connector-curvature="0"
       sodipodi:nodetypes="csc"
       inkscape:transform-center-x="-16.740003"
       inkscape:transform-center-y="-32.846602" />
    <path
       style="fill:none;stroke:#ffffff;stroke-width:0.26458332px;stroke-linecap:butt;stroke-linejoin:miter;stroke-opacity:1"
       d="m 696.74374,20.068448 c 0,0 -19.55752,56.379837 -41.49392,103.845232 -37.65031,81.46674 -49.86228,116.11075 -87.0241,149.85524 -37.29588,33.86622 -46.38435,45.95554 -58.05593,70.31268 -11.11124,23.18777 -23.04296,68.93541 -23.04296,68.93541"
       id="path1406"
       inkscape:connector-curvature="0"
       sodipodi:nodetypes="csssc" />
    <path
       style="fill:none;stroke:#ffffff;stroke-width:0.26458332px;stroke-linecap:butt;stroke-linejoin:miter;stroke-opacity:1"
       d="m 617.31355,205.88171 c 0,0 6.05908,-51.37031 -6.22308,-89.60529 -16.69409,-51.969545 -55.02,-71.880351 -93.07957,-73.563161 -43.1384,-1.907371 -77.52569,24.984159 -92.79316,50.279341 -10.79988,17.89326 -11.46484,25.63917 -18.89442,59.78507 -8.02143,36.86604 -31.39465,50.41193 -54.94393,49.91722 -34.18132,-0.71807 -75.94473,-28.50194 -100.04027,-58.74942 -26.75343,-33.58398 -32.218,-57.656274 -37.47075,-95.853679 -4.53154,-32.952791 3.15221,-73.765252 3.15221,-73.765252"
       id="path1408"
       inkscape:connector-curvature="0"
       sodipodi:nodetypes="csssssssc" />
  </g>
</svg>
